<!--?xml version="1.0" encoding="utf-8"?-->
<!-- Generator: Adobe Illustrator 19.1.1, SVG Export Plug-In . SVG Version: 6.00 Build 0)  -->
<svg version="1.1" id="_x31_0" xmlns="http://www.w3.org/2000/svg" xmlns:xlink="http://www.w3.org/1999/xlink" x="0px" y="0px" viewBox="0 0 512 512" style="width: 256px; height: 256px; opacity: 1;" xml:space="preserve">
<style type="text/css">
	.st0{fill:#374149;}
</style>
<g>
	<path class="st0" d="M59.91,314.1h179.922c6.238,0,11.199-5.043,11.199-11.203V164.979c0-6.238-5.039-11.282-11.281-11.282H59.992
		c-6.242,0-11.281,5.043-11.281,11.282v137.918C48.711,309.056,53.672,314.1,59.91,314.1z M144.39,240.26v-16.082h10.961v16.082
		H144.39z M185.512,233.697c-2.242-0.238-4.402-0.879-6.321-1.84c-0.16-0.078-0.242-0.078-0.402-0.16
		c-0.878-0.481-1.758-0.957-2.558-1.519c-0.078-0.078-0.16-0.161-0.238-0.238c-6.402-4.641-10.082-12.883-7.922-21.68
		c0-0.082,0-0.082,0-0.082c0.641-2.559,1.68-5.122,3.359-7.68c0.961-1.519,2.242-2.879,3.762-3.84
		c2.481-1.519,4.961-2.558,7.438-3.199c0.242-0.082,0.481-0.16,0.722-0.16c0.962-0.242,1.84-0.402,2.801-0.481
		c0.238,0,0.559,0,0.879-0.078c1.039,0,2.078,0,3.121,0.078c0.161,0.078,0.321,0.078,0.477,0.078c0.961,0.16,1.922,0.32,2.801,0.562
		c0.402,0.078,0.801,0.238,1.199,0.398c0.641,0.16,1.203,0.402,1.844,0.722c0.316,0.161,0.718,0.317,1.117,0.477
		c0.562,0.321,1.199,0.723,1.762,1.122c0.238,0.16,0.559,0.32,0.879,0.562c0.801,0.558,1.602,1.199,2.242,1.918
		c0.238,0.16,0.398,0.398,0.558,0.558c0.481,0.563,1.039,1.203,1.519,1.84c0.161,0.242,0.399,0.562,0.559,0.883
		c0.402,0.558,0.801,1.199,1.121,1.758c0.16,0.32,0.32,0.641,0.481,0.961c0.32,0.801,0.64,1.52,0.878,2.398
		c0.082,0.16,0.161,0.402,0.242,0.562c0.32,1.039,0.481,2.078,0.641,3.122c0,0.316,0,0.637,0.078,0.878c0,0.801,0.078,1.52,0,2.238
		c0,0.883-0.078,1.762-0.238,2.562c-0.082,0.477-0.082,0.879-0.161,1.36c-1.762,7.758-7.922,13.918-15.679,15.598
		c-0.402,0.082-0.801,0.16-1.203,0.16c-0.879,0.16-1.758,0.242-2.641,0.32c-0.797,0-1.598,0-2.316-0.078
		C186.07,233.78,185.75,233.78,185.512,233.697z M190.95,260.178v18.64h-82.161v-18.64h82.07H190.95z M123.75,229.94
		c-0.078,0.078-0.161,0.16-0.238,0.238c-0.801,0.562-1.68,1.038-2.562,1.519c-0.161,0.082-0.238,0.082-0.399,0.16
		c-1.922,0.961-4.078,1.602-6.32,1.84c-0.238,0.082-0.558,0.082-0.801,0.082c-0.801,0.078-1.519,0.078-2.32,0.078
		c-0.879-0.078-1.758-0.16-2.637-0.32c-0.402,0-0.801-0.078-1.203-0.16c-7.758-1.68-13.918-7.84-15.68-15.598
		c-0.078-0.481-0.078-0.883-0.16-1.36c-0.16-0.801-0.238-1.679-0.238-2.562c-0.082-0.718,0-1.438,0-2.238
		c0.078-0.242,0.078-0.562,0.078-0.878c0.16-1.043,0.32-2.082,0.641-3.122c0.082-0.16,0.16-0.402,0.242-0.562
		c0.238-0.878,0.559-1.598,0.879-2.398c0.16-0.32,0.32-0.641,0.481-0.961c0.32-0.558,0.718-1.199,1.117-1.758
		c0.16-0.321,0.402-0.641,0.562-0.883c0.481-0.637,1.039-1.277,1.52-1.84c0.16-0.16,0.32-0.398,0.558-0.558
		c0.641-0.718,1.442-1.359,2.242-1.918c0.32-0.242,0.64-0.402,0.878-0.562c0.559-0.398,1.199-0.801,1.762-1.039
		c0.398-0.242,0.798-0.398,1.118-0.559c0.641-0.32,1.203-0.562,1.84-0.722c0.402-0.16,0.801-0.32,1.203-0.398
		c0.878-0.242,1.839-0.402,2.797-0.562c0.16,0,0.32,0,0.48-0.078c1.039-0.078,2.082-0.078,3.122-0.078
		c0.32,0.078,0.64,0.078,0.878,0.078c0.961,0.078,1.84,0.238,2.801,0.481c0.238,0,0.481,0.078,0.719,0.16
		c2.48,0.641,4.961,1.68,7.441,3.199c1.52,0.961,2.801,2.321,3.762,3.84c1.679,2.558,2.718,5.121,3.359,7.68c0,0,0,0,0,0.082
		C133.832,217.056,130.152,225.299,123.75,229.94z" style="fill: rgb(75, 75, 75);"></path>
	<path class="st0" d="M292.242,209.869c-4.657-4.656-11.082-7.535-18.188-7.535h-8.046v51.102v0.156l0,0v0.16h8.046
		c14.207,0,25.715-11.507,25.715-25.706C299.77,220.944,296.886,214.513,292.242,209.869z" style="fill: rgb(75, 75, 75);"></path>
	<path class="st0" d="M7.527,209.869C2.883,214.513,0,220.944,0,228.045c0,14.199,11.508,25.706,25.715,25.706h8.046v-51.418h-8.046
		C18.614,202.334,12.183,205.213,7.527,209.869z" style="fill: rgb(75, 75, 75);"></path>
	<path class="st0" d="M141.91,88.74c2.48,1.359,3.84,3.918,3.519,6.718l-4.762,39.957l-0.598,4.844h0.019l-0.019,0.16h19.602
		l-5.359-44.961c-0.321-2.801,1.117-5.359,3.519-6.718c4.797-2.801,8.078-8,8.078-14c0-8.801-7.122-16-16-16V58.26l-0.078,0.481
		c-8.882,0-16,7.199-16,16C133.832,80.74,137.11,85.94,141.91,88.74z M146.629,65.78c3.282,0,5.844,2.64,5.844,5.839
		c0,3.199-2.562,5.84-5.844,5.84c-3.199,0-5.84-2.641-5.84-5.84C140.789,68.42,143.43,65.78,146.629,65.78z" style="fill: rgb(75, 75, 75);"></path>
	<path class="st0" d="M244.125,329.689H55.649c-11.055,0-19.954,8.95-19.954,19.954V469.51v0.363l0,0v0.164h228.383V349.643
		C264.078,338.639,255.176,329.689,244.125,329.689z" style="fill: rgb(75, 75, 75);"></path>
	<path class="st0" d="M359.832,328.658h87.598c14.883,0,27.043-12.16,27.043-27.039v-51.441c0-14.879-12.16-27.039-27.043-27.039
		h-87.598c-14.882,0-27.043,12.16-27.043,27.039v51.441C332.789,316.498,344.95,328.658,359.832,328.658z M399.672,280.498v-11.602
		h7.918v11.602H399.672z M429.43,275.78c-1.679-0.161-3.199-0.641-4.641-1.36c-0.078,0-0.16-0.082-0.238-0.16
		c-0.64-0.32-1.281-0.641-1.839-1.043c-0.082-0.078-0.161-0.16-0.161-0.16c-4.64-3.359-7.281-9.277-5.762-15.679
		c0-0.078,0-0.078,0-0.078c0.481-1.84,1.282-3.68,2.481-5.602c0.641-1.039,1.602-2,2.641-2.718c1.84-1.122,3.602-1.922,5.441-2.321
		c0.161-0.078,0.321-0.078,0.481-0.16c0.718-0.16,1.359-0.16,2-0.238c0.238-0.082,0.481-0.082,0.641-0.082h2.238
		c0.16,0.082,0.32,0.082,0.398,0.082c0.722,0.078,1.363,0.238,2,0.398c0.32,0.082,0.562,0.16,0.882,0.238
		c0.481,0.16,0.879,0.32,1.359,0.562c0.238,0.16,0.481,0.238,0.719,0.398c0.48,0.242,0.961,0.481,1.359,0.722
		c0.16,0.161,0.402,0.238,0.641,0.399c0.558,0.48,1.121,0.878,1.602,1.441l0.398,0.398c0.402,0.398,0.718,0.879,1.121,1.282
		c0.16,0.238,0.238,0.48,0.398,0.641c0.321,0.476,0.562,0.878,0.801,1.359c0.16,0.238,0.238,0.398,0.321,0.718
		c0.238,0.481,0.48,1.039,0.718,1.68c0,0.16,0.082,0.242,0.16,0.398c0.161,0.801,0.321,1.523,0.402,2.242v0.641
		c0.078,0.558,0.078,1.117,0.078,1.598c0,0.64-0.078,1.281-0.16,1.922c-0.078,0.32-0.078,0.641-0.16,0.961
		c-1.2,5.598-5.68,10-11.36,11.278c-0.238,0.082-0.558,0.082-0.801,0.082c-0.64,0.161-1.359,0.238-1.918,0.238
		c-0.641,0-1.122,0-1.68-0.078H429.43z M384.711,273.056l-0.161,0.16c-0.558,0.402-1.199,0.723-1.839,1.043
		c-0.082,0.078-0.161,0.16-0.238,0.16c-1.442,0.719-3.043,1.199-4.641,1.36h-0.562c-0.481,0.078-1.118,0.078-1.68,0.078
		c-0.64,0-1.199-0.078-1.918-0.238c-0.242,0-0.481,0-0.801-0.082c-5.68-1.278-10.082-5.68-11.359-11.278
		c-0.082-0.32-0.082-0.641-0.161-0.961c-0.082-0.641-0.16-1.282-0.16-1.922v-1.598c0-0.161,0-0.402,0.078-0.641
		c0.082-0.719,0.242-1.442,0.481-2.242c0.082-0.156,0.082-0.238,0.16-0.398c0.16-0.641,0.32-1.199,0.64-1.68
		c0.078-0.32,0.238-0.48,0.321-0.718c0.32-0.481,0.558-0.883,0.801-1.359c0.16-0.161,0.32-0.402,0.48-0.641
		c0.321-0.402,0.637-0.883,1.118-1.282c0.082-0.16,0.16-0.238,0.32-0.398c0.562-0.562,1.039-0.961,1.602-1.441
		c0.238-0.161,0.481-0.238,0.719-0.399c0.402-0.242,0.801-0.48,1.199-0.722c0.32-0.16,0.562-0.238,0.882-0.398
		c0.398-0.242,0.797-0.402,1.278-0.562c0.242-0.078,0.562-0.156,0.882-0.238c0.637-0.16,1.36-0.32,2-0.398
		c0.078,0,0.238,0,0.398-0.082h2.879c0.641,0.16,1.282,0.16,2,0.32c0.16,0.082,0.321,0.082,0.481,0.16
		c1.762,0.398,3.602,1.199,5.359,2.321c1.121,0.718,2.082,1.679,2.801,2.718c1.121,1.922,1.922,3.762,2.402,5.602c0,0,0,0,0,0.078
		C391.992,263.78,389.351,269.697,384.711,273.056z M373.91,308.338v-13.442h59.418h0.023v13.442h-59.418H373.91z" style="fill: rgb(75, 75, 75);"></path>
	<path class="st0" d="M506.558,258.525c-3.363-3.367-8.011-5.449-13.148-5.449h-5.817v36.898v0.113l0,0v0.16h5.817
		c10.27,0,18.59-8.32,18.59-18.582C512,266.529,509.918,261.88,506.558,258.525z" style="fill: rgb(75, 75, 75);"></path>
	<path class="st0" d="M300.73,258.525c-3.355,3.355-5.442,8.004-5.442,13.141c0,10.262,8.321,18.582,18.59,18.582h5.816v-37.171
		h-5.816C308.746,253.076,304.098,255.158,300.73,258.525z" style="fill: rgb(75, 75, 75);"></path>
	<path class="st0" d="M397.832,192.896c1.84,1.043,2.879,2.883,2.641,4.883l-1.77,14.835l-0.234,1.805h0.023l-0.019,0.16h10.398
		l-2-16.8c-0.242-2,0.801-3.84,2.48-4.883c3.52-1.918,5.918-5.758,5.918-10.078c0-6.398-5.118-11.602-11.598-11.602v-0.32
		l-0.082,0.32c-6.398,0-11.598,5.203-11.598,11.602C391.992,187.139,394.39,190.979,397.832,192.896z M401.27,176.338
		c2.402,0,4.242,1.922,4.242,4.16c0,2.398-1.84,4.242-4.242,4.242c-2.32,0-4.16-1.844-4.16-4.242
		C397.11,178.26,398.95,176.338,401.27,176.338z" style="fill: rgb(75, 75, 75);"></path>
	<path class="st0" d="M420.473,460.017L374.39,345.139h-38.878c-8,0-14.402,6.48-14.402,14.398v108.23v0.332l0,0v0.16h112.722
		C428.473,467.94,423.351,465.056,420.473,460.017z" style="fill: rgb(75, 75, 75);"></path>
	<path class="st0" d="M419.351,417.619c0.555,0.782,1.422,1.051,2.305,1.051l0,0h0.004c0.383,0,0.77,0.078,1.129-0.09
		c7.485-3.394,32.875-15,50.539-22.859c0.622-0.27,1.286-0.562,1.887-0.816l-0.012-0.02c0.047-0.023,0.102-0.046,0.148-0.066
		l-30.402-49.679h-40.356l-15.578-0.062l0.027,0.062h-0.172L419.351,417.619z" style="fill: rgb(75, 75, 75);"></path>
	<path class="st0" d="M463.336,345.139l-4.168-0.078l0.047,0.078h-0.184l25.84,45.441l1.281,2.238V390.1v-30.562
		c0-7.918-6.402-14.398-14.402-14.398H463.336z" style="fill: rgb(75, 75, 75);"></path>
	<path class="st0" d="M486.152,444.998v-0.18l-44,21.84c-1.308,0.653-2.664,1.035-4.027,1.313c-0.297,0.031-0.562,0.121-0.874,0.129
		h0.242c-0.258,0.043-0.519,0.125-0.781,0.16h49.441V452.1l0.07-7.141L486.152,444.998z" style="fill: rgb(75, 75, 75);"></path>
	<polygon class="st0" points="96.426,70.311 91.656,80.268 109.859,89.631 113.718,81.58 102.855,73.388 102.851,65.041 
		81.297,46.67 75.922,42.033 75.902,42.068 75.778,41.963 68.66,56.811 68.656,56.826 68.656,56.826 68.586,56.971 	" style="fill: rgb(75, 75, 75);"></polygon>
	<polygon class="st0" points="213.461,85.646 208.691,75.689 236.332,62.444 236.386,62.42 236.386,62.42 236.531,62.349 
		230.824,50.44 229.446,47.467 229.414,47.49 229.34,47.342 202.266,70.42 202.262,78.768 191.402,86.959 195.258,95.013 	" style="fill: rgb(75, 75, 75);"></polygon>
	<polygon class="st0" points="440.95,446.178 485.832,422.896 485.832,419.349 485.906,417.678 485.832,417.72 485.832,417.537 
		440.95,441.857 436.922,441.689 433.434,441.404 433.68,441.552 433.351,441.537 	" style="fill: rgb(75, 75, 75);"></polygon>
</g>
</svg>
